<svg xmlns="http://www.w3.org/2000/svg" xmlns:xlink="http://www.w3.org/1999/xlink" width="500" zoomAndPan="magnify" viewBox="0 0 375 374.999991" height="500" preserveAspectRatio="xMidYMid meet" version="1.0"><defs><clipPath id="401f0dbb6b"><path d="M 120.109375 103.523438 L 255.109375 103.523438 L 255.109375 270 L 120.109375 270 Z M 120.109375 103.523438 " clip-rule="nonzero"/></clipPath></defs><path fill="#edb8a5" d="M 154.679688 159.949219 C 154.128906 159.949219 153.582031 159.828125 153.066406 159.582031 C 151.964844 159.0625 151.179688 158.039062 150.960938 156.84375 L 149.902344 151.082031 C 149.136719 144.105469 151.359375 137.085938 156.011719 131.828125 C 160.738281 126.488281 167.554688 123.425781 174.707031 123.425781 L 200.550781 123.425781 C 207.691406 123.425781 214.503906 126.488281 219.234375 131.828125 C 223.894531 137.101562 226.121094 144.121094 225.339844 151.089844 L 224.28125 156.847656 C 224.0625 158.042969 223.273438 159.066406 222.175781 159.585938 C 221.070312 160.109375 219.816406 160.070312 218.738281 159.480469 C 209.273438 154.265625 198.511719 151.511719 187.621094 151.511719 C 176.726562 151.511719 165.964844 154.265625 156.5 159.480469 C 155.925781 159.792969 155.300781 159.949219 154.679688 159.949219 Z M 152.753906 150.722656 L 153.789062 156.328125 C 153.863281 156.742188 154.167969 156.929688 154.296875 156.988281 C 154.449219 157.058594 154.757812 157.152344 155.109375 156.964844 C 165.003906 151.519531 176.242188 148.640625 187.621094 148.640625 C 198.996094 148.640625 210.238281 151.519531 220.125 156.964844 C 220.476562 157.152344 220.785156 157.0625 220.941406 156.988281 C 221.066406 156.929688 221.371094 156.742188 221.449219 156.324219 L 222.492188 150.667969 C 223.167969 144.609375 221.199219 138.398438 217.074219 133.730469 C 212.890625 129.003906 206.867188 126.296875 200.546875 126.296875 L 174.703125 126.296875 C 168.375 126.296875 162.347656 129.003906 158.164062 133.730469 C 154.058594 138.371094 152.089844 144.5625 152.753906 150.722656 Z M 152.753906 150.722656 " fill-opacity="1" fill-rule="nonzero"/><path fill="#edb8a5" d="M 187.613281 258.695312 L 186.773438 258.085938 C 185.804688 257.382812 162.953125 240.683594 154.828125 226.089844 C 149.324219 216.203125 151.925781 202.925781 160.628906 196.492188 C 168.578125 190.617188 178.582031 192.363281 187.613281 201.101562 C 196.644531 192.363281 206.648438 190.617188 214.597656 196.492188 C 223.304688 202.925781 225.90625 216.203125 220.402344 226.085938 C 212.152344 240.894531 190.855469 256.375 188.453125 258.089844 Z M 170.714844 195.980469 C 167.738281 195.980469 164.902344 196.910156 162.34375 198.800781 C 155.730469 203.691406 151.9375 214.980469 157.339844 224.695312 C 164.3125 237.210938 183.394531 251.964844 187.628906 255.140625 C 191.898438 252 210.601562 237.78125 217.890625 224.691406 C 223.296875 214.980469 219.503906 203.6875 212.886719 198.800781 C 205.902344 193.636719 196.847656 195.640625 188.648438 204.132812 L 187.613281 205.207031 L 186.578125 204.132812 C 181.386719 198.753906 175.851562 195.980469 170.714844 195.980469 Z M 170.714844 195.980469 " fill-opacity="1" fill-rule="nonzero"/><g clip-path="url(#401f0dbb6b)"><path fill="#edb8a5" d="M 215.207031 269.234375 C 211.191406 269.234375 207.128906 268.523438 203.203125 267.046875 C 197.03125 264.722656 191.652344 261.703125 186.886719 258.398438 C 182.21875 261.148438 177.175781 263.597656 171.859375 265.683594 C 157.023438 271.503906 139.972656 266.292969 131.328125 253.28125 C 123.992188 242.234375 120.109375 229.367188 120.109375 216.058594 C 120.109375 203.042969 123.839844 190.402344 130.890625 179.503906 C 132.914062 176.386719 133.648438 172.609375 132.960938 168.871094 L 130.210938 153.886719 C 128.625 141.078125 132.609375 128.277344 141.117188 118.675781 C 149.617188 109.070312 161.859375 103.5625 174.699219 103.5625 L 200.546875 103.5625 C 213.378906 103.5625 225.613281 109.070312 234.113281 118.675781 C 242.625 128.277344 246.605469 141.078125 245.035156 153.804688 L 244.945312 154.425781 L 242.289062 168.875 C 241.601562 172.609375 242.332031 176.386719 244.351562 179.507812 C 251.398438 190.414062 255.121094 203.050781 255.121094 216.058594 C 255.121094 230.332031 250.710938 243.964844 242.371094 255.492188 C 235.984375 264.308594 225.769531 269.234375 215.207031 269.234375 Z M 189.578125 256.753906 C 193.910156 259.65625 198.75 262.300781 204.21875 264.359375 C 217.261719 269.269531 231.984375 264.929688 240.035156 253.808594 C 248.019531 242.777344 252.238281 229.722656 252.238281 216.058594 C 252.238281 203.609375 248.671875 191.507812 241.929688 181.070312 C 239.511719 177.328125 238.632812 172.816406 239.457031 168.359375 L 242.179688 153.425781 C 243.648438 141.546875 239.921875 129.570312 231.953125 120.582031 C 224 111.59375 212.550781 106.4375 200.539062 106.4375 L 174.695312 106.4375 C 162.675781 106.4375 151.21875 111.59375 143.265625 120.582031 C 135.296875 129.566406 131.574219 141.546875 133.046875 153.453125 L 135.78125 168.355469 C 136.601562 172.816406 135.71875 177.332031 133.300781 181.070312 C 126.550781 191.5 122.980469 203.601562 122.980469 216.0625 C 122.980469 228.804688 126.691406 241.121094 133.71875 251.695312 C 141.617188 263.585938 157.214844 268.34375 170.796875 263.011719 C 175.5625 261.140625 180.09375 258.976562 184.320312 256.558594 C 180.050781 253.371094 176.300781 250.003906 172.929688 246.792969 L 174.914062 244.710938 C 178.464844 248.085938 182.441406 251.648438 187.003906 254.960938 C 192.019531 251.878906 196.546875 248.429688 200.453125 244.710938 L 202.4375 246.792969 C 198.675781 250.382812 194.34375 253.726562 189.578125 256.753906 Z M 189.578125 256.753906 " fill-opacity="1" fill-rule="nonzero"/></g></svg>