<svg xmlns="http://www.w3.org/2000/svg" xmlns:xlink="http://www.w3.org/1999/xlink" width="500" zoomAndPan="magnify" viewBox="0 0 375 374.999991" height="500" preserveAspectRatio="xMidYMid meet" version="1.0"><defs><g/><clipPath id="31ae9fd246"><path d="M 150.945312 109.816406 L 223.695312 109.816406 L 223.695312 200 L 150.945312 200 Z M 150.945312 109.816406 " clip-rule="nonzero"/></clipPath></defs><path fill="#edb8a5" d="M 169.574219 140.296875 C 169.277344 140.296875 168.984375 140.230469 168.703125 140.097656 C 168.113281 139.816406 167.6875 139.265625 167.570312 138.621094 L 167 135.507812 C 166.585938 131.738281 167.785156 127.949219 170.292969 125.109375 C 172.839844 122.222656 176.511719 120.570312 180.367188 120.570312 L 194.292969 120.570312 C 198.140625 120.570312 201.8125 122.222656 204.363281 125.109375 C 206.875 127.957031 208.074219 131.75 207.652344 135.511719 L 207.082031 138.621094 C 206.964844 139.269531 206.539062 139.820312 205.945312 140.101562 C 205.351562 140.382812 204.675781 140.363281 204.09375 140.042969 C 198.996094 137.230469 193.195312 135.742188 187.324219 135.742188 C 181.453125 135.742188 175.65625 137.230469 170.554688 140.042969 C 170.246094 140.214844 169.910156 140.296875 169.574219 140.296875 Z M 168.535156 135.3125 L 169.09375 138.339844 C 169.132812 138.566406 169.300781 138.664062 169.367188 138.699219 C 169.449219 138.734375 169.617188 138.789062 169.804688 138.683594 C 175.136719 135.746094 181.195312 134.191406 187.324219 134.191406 C 193.457031 134.191406 199.511719 135.746094 204.84375 138.683594 C 205.03125 138.789062 205.199219 138.738281 205.28125 138.699219 C 205.347656 138.664062 205.511719 138.566406 205.554688 138.339844 L 206.117188 135.285156 C 206.480469 132.011719 205.421875 128.65625 203.199219 126.136719 C 200.941406 123.585938 197.695312 122.121094 194.292969 122.121094 L 180.363281 122.121094 C 176.953125 122.121094 173.707031 123.585938 171.453125 126.136719 C 169.238281 128.644531 168.179688 131.988281 168.535156 135.3125 Z M 168.535156 135.3125 " fill-opacity="1" fill-rule="nonzero"/><path fill="#edb8a5" d="M 187.320312 193.632812 L 186.867188 193.300781 C 186.347656 192.921875 174.03125 183.902344 169.652344 176.019531 C 166.6875 170.679688 168.089844 163.507812 172.78125 160.035156 C 177.0625 156.863281 182.453125 157.804688 187.320312 162.523438 C 192.1875 157.804688 197.578125 156.859375 201.863281 160.035156 C 206.554688 163.507812 207.957031 170.679688 204.992188 176.019531 C 200.546875 184.015625 189.066406 192.378906 187.773438 193.304688 Z M 178.214844 159.757812 C 176.613281 159.757812 175.082031 160.261719 173.703125 161.28125 C 170.140625 163.921875 168.09375 170.019531 171.007812 175.265625 C 174.765625 182.027344 185.046875 189.996094 187.328125 191.710938 C 189.632812 190.015625 199.710938 182.335938 203.636719 175.265625 C 206.550781 170.019531 204.507812 163.921875 200.941406 161.28125 C 197.179688 158.492188 192.296875 159.574219 187.878906 164.164062 L 187.320312 164.742188 L 186.761719 164.164062 C 183.96875 161.257812 180.984375 159.757812 178.214844 159.757812 Z M 178.214844 159.757812 " fill-opacity="1" fill-rule="nonzero"/><g clip-path="url(#31ae9fd246)"><path fill="#edb8a5" d="M 202.191406 199.324219 C 200.027344 199.324219 197.835938 198.9375 195.722656 198.140625 C 192.398438 196.886719 189.496094 195.253906 186.929688 193.472656 C 184.414062 194.957031 181.695312 196.277344 178.832031 197.40625 C 170.835938 200.546875 161.648438 197.734375 156.988281 190.707031 C 153.035156 184.742188 150.945312 177.789062 150.945312 170.601562 C 150.945312 163.574219 152.953125 156.746094 156.753906 150.859375 C 157.84375 149.175781 158.242188 147.136719 157.871094 145.117188 L 156.386719 137.023438 C 155.535156 130.105469 157.679688 123.191406 162.265625 118.007812 C 166.847656 112.816406 173.441406 109.84375 180.363281 109.84375 L 194.289062 109.84375 C 201.207031 109.84375 207.800781 112.816406 212.378906 118.007812 C 216.964844 123.191406 219.113281 130.105469 218.265625 136.976562 L 218.21875 137.316406 L 216.785156 145.117188 C 216.414062 147.136719 216.808594 149.175781 217.894531 150.863281 C 221.695312 156.75 223.703125 163.578125 223.703125 170.601562 C 223.703125 178.3125 221.324219 185.675781 216.828125 191.902344 C 213.390625 196.664062 207.882812 199.324219 202.191406 199.324219 Z M 188.378906 192.582031 C 190.714844 194.152344 193.324219 195.578125 196.269531 196.691406 C 203.296875 199.34375 211.234375 197 215.570312 190.992188 C 219.875 185.03125 222.148438 177.980469 222.148438 170.601562 C 222.148438 163.878906 220.226562 157.34375 216.589844 151.703125 C 215.289062 149.683594 214.816406 147.246094 215.257812 144.839844 L 216.726562 136.773438 C 217.515625 130.359375 215.507812 123.890625 211.214844 119.035156 C 206.929688 114.179688 200.757812 111.394531 194.285156 111.394531 L 180.359375 111.394531 C 173.882812 111.394531 167.710938 114.179688 163.421875 119.035156 C 159.128906 123.886719 157.125 130.359375 157.914062 136.789062 L 159.390625 144.839844 C 159.832031 147.246094 159.355469 149.6875 158.054688 151.703125 C 154.414062 157.339844 152.492188 163.875 152.492188 170.605469 C 152.492188 177.484375 154.492188 184.140625 158.277344 189.851562 C 162.535156 196.273438 170.941406 198.839844 178.261719 195.960938 C 180.828125 194.953125 183.269531 193.78125 185.546875 192.476562 C 183.246094 190.757812 181.226562 188.9375 179.410156 187.203125 L 180.480469 186.078125 C 182.390625 187.902344 184.535156 189.824219 186.992188 191.613281 C 189.695312 189.949219 192.136719 188.085938 194.238281 186.078125 L 195.308594 187.203125 C 193.285156 189.140625 190.949219 190.949219 188.378906 192.582031 Z M 188.378906 192.582031 " fill-opacity="1" fill-rule="nonzero"/></g><g fill="#291b25" fill-opacity="1"><g transform="translate(108.300077, 243.184306)"><g><path d="M 0.800781 3.78125 C 1.652344 3.78125 1.703125 2.769531 1.863281 2.078125 C 2.238281 0.425781 2.664062 -1.171875 3.089844 -2.824219 C 3.464844 -4.476562 3.835938 -6.128906 4.210938 -7.777344 C 4.316406 -8.363281 4.636719 -8.683594 5.222656 -8.792969 C 5.59375 -8.84375 5.96875 -8.953125 6.339844 -9.003906 C 6.714844 -9.058594 7.085938 -9.109375 7.460938 -9.164062 C 8.363281 -9.324219 9.324219 -9.539062 10.230469 -9.695312 C 11.136719 -9.855469 12.042969 -10.015625 12.949219 -10.175781 C 13.640625 -10.285156 14.121094 -10.550781 14.4375 -10.976562 C 14.707031 -11.347656 14.652344 -11.667969 14.386719 -11.933594 C 14.28125 -12.09375 14.171875 -12.148438 14.011719 -12.148438 C 13.851562 -12.148438 13.746094 -12.09375 13.640625 -11.988281 C 12.949219 -11.402344 12.148438 -11.402344 11.347656 -11.242188 C 10.441406 -11.082031 9.539062 -10.921875 8.632812 -10.761719 C 7.726562 -10.601562 6.765625 -10.441406 5.859375 -10.285156 C 5.753906 -10.230469 5.59375 -10.230469 5.328125 -10.230469 C 5.113281 -10.230469 5.007812 -10.335938 5.007812 -10.550781 C 5.007812 -10.921875 5.0625 -11.136719 5.113281 -11.402344 C 5.914062 -14.386719 6.714844 -17.210938 7.566406 -20.140625 C 8.152344 -22.003906 8.84375 -23.761719 9.644531 -25.523438 C 9.855469 -26.109375 10.230469 -26.375 10.761719 -26.425781 L 13.054688 -26.746094 C 17.53125 -27.332031 21.898438 -27.867188 26.375 -28.078125 C 27.171875 -28.078125 27.867188 -28.132812 28.664062 -28.1875 C 29.359375 -28.238281 29.625 -28.503906 29.464844 -28.878906 C 29.304688 -29.304688 28.984375 -29.304688 28.613281 -29.304688 C 28.558594 -29.359375 28.453125 -29.359375 28.292969 -29.359375 C 28.132812 -29.359375 28.027344 -29.359375 27.917969 -29.304688 C 22.429688 -29.039062 17.210938 -28.453125 11.828125 -27.652344 L 11.296875 -27.652344 C 11.082031 -27.652344 10.921875 -27.707031 10.816406 -27.757812 C 10.761719 -27.917969 10.761719 -28.078125 10.816406 -28.1875 C 10.871094 -28.292969 10.871094 -28.453125 10.921875 -28.613281 L 11.242188 -29.570312 C 11.402344 -29.945312 11.136719 -30.265625 10.761719 -30.421875 C 10.390625 -30.421875 10.230469 -30.476562 10.015625 -30.105469 C 9.855469 -29.835938 9.75 -29.519531 9.644531 -29.089844 C 8.792969 -27.121094 9.058594 -27.332031 6.980469 -26.90625 C 5.96875 -26.695312 5.007812 -26.480469 4.050781 -26.214844 C 3.035156 -25.949219 2.078125 -25.734375 1.066406 -25.46875 C 0.691406 -25.414062 0.480469 -25.253906 0.320312 -25.042969 C 0.265625 -24.988281 0.265625 -24.882812 0.265625 -24.722656 C 0.320312 -24.5625 0.425781 -24.507812 0.480469 -24.507812 C 0.960938 -24.507812 1.332031 -24.5625 1.703125 -24.667969 C 2.503906 -24.828125 3.355469 -25.042969 4.15625 -25.253906 C 4.957031 -25.414062 5.808594 -25.628906 6.605469 -25.789062 C 6.980469 -25.839844 7.191406 -25.894531 7.460938 -25.894531 C 7.726562 -25.894531 7.886719 -25.839844 7.992188 -25.789062 C 8.046875 -25.574219 8.046875 -25.363281 7.992188 -25.203125 C 7.886719 -24.988281 7.777344 -24.777344 7.726562 -24.617188 C 5.96875 -20.300781 4.6875 -15.664062 3.675781 -11.136719 C 3.410156 -10.175781 2.824219 -9.644531 1.917969 -9.539062 C 1.332031 -9.484375 0.851562 -9.429688 0.371094 -9.269531 C 0.0546875 -9.164062 -0.0546875 -8.898438 0 -8.523438 C 0.0546875 -8.257812 0.214844 -8.097656 0.480469 -8.097656 C 0.746094 -8.097656 0.960938 -8.097656 1.226562 -8.097656 C 1.4375 -8.097656 1.652344 -8.097656 1.863281 -8.152344 C 2.664062 -8.152344 2.769531 -7.992188 2.609375 -7.191406 C 2.558594 -7.03125 2.558594 -6.925781 2.558594 -6.820312 C 2.503906 -6.660156 2.449219 -6.5 2.398438 -6.339844 L 0.480469 2.132812 C 0.425781 2.292969 0.425781 2.449219 0.371094 2.609375 C 0.320312 2.71875 0.320312 2.824219 0.265625 2.984375 C 0.214844 3.464844 0.371094 3.730469 0.800781 3.78125 Z M 0.800781 3.78125 "/></g></g></g><g fill="#291b25" fill-opacity="1"><g transform="translate(126.042302, 243.184306)"><g><path d="M 2.292969 -1.917969 C 3.730469 -1.917969 5.167969 -3.035156 6.179688 -3.941406 C 8.523438 -5.914062 10.390625 -8.257812 12.253906 -10.65625 C 12.414062 -10.816406 12.519531 -10.976562 12.574219 -11.242188 C 12.628906 -11.507812 12.574219 -11.722656 12.359375 -11.882812 C 12.253906 -11.988281 12.148438 -12.042969 11.988281 -12.042969 C 11.882812 -12.042969 11.773438 -11.988281 11.722656 -11.933594 C 11.457031 -11.722656 11.1875 -11.507812 10.976562 -11.242188 C 10.550781 -10.761719 10.125 -10.230469 9.75 -9.75 C 9.378906 -9.269531 8.953125 -8.738281 8.523438 -8.257812 C 7.300781 -6.820312 6.019531 -5.59375 4.582031 -4.367188 C 3.941406 -3.890625 3.355469 -3.515625 2.558594 -3.355469 C 1.972656 -3.355469 1.652344 -3.410156 1.492188 -3.996094 C 1.386719 -4.476562 1.332031 -4.957031 1.386719 -5.382812 C 1.703125 -7.886719 2.503906 -10.550781 3.410156 -12.894531 C 3.464844 -13.160156 3.410156 -13.375 3.144531 -13.480469 C 2.984375 -13.535156 2.878906 -13.585938 2.769531 -13.585938 C 2.664062 -13.585938 2.503906 -13.535156 2.34375 -13.425781 C 0.960938 -12.042969 0.371094 -7.726562 0 -5.382812 C 0 -4.582031 0 -4.050781 0.214844 -3.464844 C 0.585938 -2.449219 1.277344 -1.917969 2.292969 -1.917969 Z M 3.675781 -15.503906 C 4.261719 -15.503906 4.796875 -16.039062 4.796875 -16.625 C 4.742188 -17.210938 4.367188 -17.476562 3.730469 -17.476562 C 3.089844 -17.476562 2.769531 -17.15625 2.769531 -16.515625 C 2.824219 -15.878906 3.195312 -15.453125 3.675781 -15.503906 Z M 3.675781 -15.503906 "/></g></g></g><g fill="#291b25" fill-opacity="1"><g transform="translate(135.952371, 243.184306)"><g><path d="M 0.960938 3.78125 C 1.8125 3.78125 2.824219 3.035156 3.304688 2.398438 C 5.007812 0.425781 6.925781 -2.183594 8.683594 -4.582031 C 10.175781 -6.605469 12.148438 -9.324219 13.214844 -10.601562 C 13.320312 -10.710938 13.375 -10.816406 13.375 -10.921875 C 13.535156 -11.242188 13.480469 -11.507812 13.214844 -11.722656 C 13.054688 -11.773438 12.949219 -11.828125 12.839844 -11.828125 C 12.789062 -11.828125 12.789062 -11.828125 12.734375 -11.828125 C 12.679688 -11.773438 12.679688 -11.773438 12.628906 -11.773438 C 12.359375 -11.667969 12.148438 -11.507812 11.988281 -11.347656 C 11.828125 -11.136719 11.617188 -10.921875 11.457031 -10.710938 C 9.910156 -9.164062 5.222656 -2.132812 2.984375 0.691406 C 2.71875 1.011719 2.449219 1.332031 2.183594 1.652344 C 1.917969 1.917969 1.597656 2.132812 1.117188 2.183594 C 0.320312 1.546875 0.585938 0.585938 0.640625 -0.214844 C 0.800781 -2.078125 1.011719 -3.78125 1.4375 -5.542969 C 2.132812 -8.632812 4.902344 -17.101562 6.128906 -19.820312 C 6.394531 -20.511719 6.925781 -20.832031 7.671875 -20.886719 L 19.128906 -21.898438 C 19.394531 -21.953125 19.609375 -21.953125 19.820312 -22.003906 C 20.035156 -22.003906 20.246094 -22.058594 20.511719 -22.113281 C 20.726562 -22.164062 20.832031 -22.378906 20.832031 -22.644531 C 20.78125 -23.015625 20.621094 -23.175781 20.40625 -23.175781 L 18.488281 -23.175781 C 16.996094 -23.015625 15.398438 -22.859375 13.640625 -22.75 C 11.882812 -22.589844 10.285156 -22.429688 8.792969 -22.273438 C 8.738281 -22.273438 8.632812 -22.273438 8.523438 -22.273438 C 8.417969 -22.21875 8.3125 -22.21875 8.207031 -22.21875 C 7.992188 -22.21875 7.777344 -22.273438 7.511719 -22.324219 C 7.511719 -22.589844 7.566406 -22.859375 7.671875 -23.070312 C 7.726562 -23.230469 7.832031 -23.445312 7.886719 -23.605469 C 8.578125 -25.042969 9.269531 -26.425781 9.855469 -27.867188 C 10.125 -28.34375 10.175781 -28.773438 10.125 -29.039062 C 10.015625 -29.304688 9.855469 -29.410156 9.644531 -29.410156 C 9.269531 -29.410156 8.898438 -29.089844 8.523438 -28.453125 C 8.257812 -28.027344 7.992188 -27.601562 7.777344 -27.171875 C 7.511719 -26.746094 7.300781 -26.320312 7.03125 -25.894531 L 5.59375 -22.699219 C 5.328125 -22.113281 4.902344 -21.84375 4.261719 -21.792969 C 3.355469 -21.683594 2.398438 -21.578125 1.4375 -21.472656 C 0.480469 -21.367188 -0.480469 -21.257812 -1.4375 -21.097656 C -1.703125 -21.046875 -1.972656 -20.992188 -2.238281 -20.941406 C -2.449219 -20.886719 -2.664062 -20.78125 -2.929688 -20.726562 C -3.195312 -20.671875 -3.25 -20.460938 -3.195312 -20.140625 C -3.144531 -19.980469 -3.035156 -19.875 -2.824219 -19.820312 C -2.664062 -19.765625 -2.503906 -19.765625 -2.238281 -19.765625 C -1.8125 -19.765625 -1.332031 -19.875 -0.90625 -19.925781 C -0.214844 -19.980469 0.53125 -20.085938 1.277344 -20.195312 C 1.972656 -20.300781 2.71875 -20.40625 3.410156 -20.460938 L 3.835938 -20.460938 C 4.476562 -20.460938 4.527344 -20.195312 4.261719 -19.394531 C 3.890625 -18.488281 3.625 -17.636719 3.25 -16.625 C 1.492188 -11.828125 -0.746094 -4.527344 -0.746094 0.640625 C -0.746094 1.863281 -0.425781 3.78125 0.960938 3.78125 Z M 0.960938 3.78125 "/></g></g></g><g fill="#291b25" fill-opacity="1"><g transform="translate(146.661643, 243.184306)"><g><path d="M -0.265625 -0.53125 C -0.0546875 -0.53125 0.105469 -0.585938 0.265625 -0.691406 C 0.585938 -0.960938 0.851562 -1.226562 1.011719 -1.597656 C 1.171875 -1.917969 1.332031 -2.238281 1.492188 -2.558594 C 3.144531 -5.914062 5.167969 -9.109375 7.9375 -11.617188 C 8.046875 -11.722656 8.152344 -11.773438 8.3125 -11.773438 C 8.472656 -11.773438 8.632812 -11.617188 8.683594 -11.347656 C 8.738281 -10.816406 8.84375 -10.285156 8.898438 -9.804688 C 8.953125 -9.269531 9.003906 -8.738281 9.058594 -8.207031 C 9.109375 -7.566406 9.269531 -6.925781 9.644531 -6.234375 C 10.070312 -5.488281 10.65625 -5.113281 11.347656 -5.113281 C 11.402344 -5.113281 11.507812 -5.113281 11.617188 -5.167969 C 11.667969 -5.167969 11.773438 -5.167969 11.828125 -5.167969 C 12.628906 -5.328125 13.320312 -5.699219 13.960938 -6.289062 C 14.546875 -6.820312 17.6875 -9.644531 18.277344 -10.230469 C 18.488281 -10.441406 18.648438 -10.710938 18.753906 -10.976562 C 18.863281 -11.242188 18.808594 -11.507812 18.542969 -11.722656 C 18.433594 -11.828125 18.328125 -11.882812 18.167969 -11.882812 C 18.007812 -11.882812 17.902344 -11.828125 17.796875 -11.722656 C 17.6875 -11.667969 17.582031 -11.507812 17.421875 -11.347656 C 17.261719 -11.1875 16.890625 -10.816406 16.304688 -10.335938 C 15.824219 -9.910156 15.34375 -9.484375 14.917969 -9.058594 C 14.4375 -8.578125 14.011719 -8.152344 13.535156 -7.726562 C 12.949219 -7.246094 12.414062 -6.820312 11.773438 -6.605469 C 11.722656 -6.605469 11.667969 -6.605469 11.667969 -6.605469 C 11.617188 -6.554688 11.5625 -6.554688 11.507812 -6.554688 C 11.1875 -6.554688 10.976562 -6.714844 10.871094 -6.980469 C 10.601562 -7.460938 10.441406 -7.992188 10.390625 -8.632812 C 10.335938 -9.058594 10.285156 -9.484375 10.285156 -9.910156 C 10.230469 -10.335938 10.175781 -10.761719 10.125 -11.242188 C 9.964844 -12.148438 9.804688 -13.425781 8.578125 -13.425781 C 6.5 -13.425781 2.398438 -7.300781 1.492188 -5.488281 C 1.332031 -5.859375 1.277344 -6.179688 1.4375 -6.5 C 1.546875 -6.820312 1.652344 -7.140625 1.757812 -7.460938 C 2.292969 -8.792969 2.824219 -10.175781 3.355469 -11.5625 C 3.835938 -12.894531 4.367188 -14.28125 4.902344 -15.613281 L 5.222656 -16.25 C 5.382812 -16.625 5.328125 -16.945312 4.957031 -17.15625 C 4.796875 -17.210938 4.6875 -17.261719 4.636719 -17.261719 C 4.050781 -17.261719 3.570312 -15.824219 3.25 -15.34375 C 2.769531 -14.011719 2.238281 -12.679688 1.757812 -11.347656 C 1.277344 -10.015625 0.746094 -8.683594 0.265625 -7.351562 C -0.320312 -5.59375 -0.851562 -3.835938 -1.066406 -1.972656 C -1.066406 -1.652344 -1.066406 -1.4375 -1.011719 -1.277344 C -0.960938 -0.800781 -0.691406 -0.53125 -0.265625 -0.53125 Z M -0.265625 -0.53125 "/></g></g></g><g fill="#291b25" fill-opacity="1"><g transform="translate(162.805473, 243.184306)"><g><path d="M 2.503906 -2.238281 C 6.179688 -2.238281 11.773438 -7.671875 14.332031 -10.390625 C 14.546875 -10.601562 14.707031 -10.761719 14.757812 -10.921875 C 14.917969 -11.1875 14.867188 -11.457031 14.597656 -11.722656 C 14.492188 -11.828125 14.386719 -11.882812 14.226562 -11.882812 C 14.121094 -11.882812 13.960938 -11.828125 13.800781 -11.722656 C 13.640625 -11.5625 13.480469 -11.402344 13.320312 -11.242188 C 13.160156 -11.082031 12.949219 -10.921875 12.789062 -10.761719 C 12.148438 -10.175781 11.507812 -9.589844 10.921875 -9.003906 C 10.285156 -8.417969 9.644531 -7.777344 9.003906 -7.191406 C 7.460938 -5.753906 5.007812 -4.050781 2.878906 -3.625 C 1.863281 -3.625 1.277344 -3.625 1.066406 -4.847656 C 0.800781 -5.542969 0.746094 -6.128906 0.90625 -6.714844 C 0.960938 -6.980469 1.117188 -7.140625 1.332031 -7.191406 C 3.890625 -7.460938 7.246094 -10.601562 7.671875 -13.214844 C 7.832031 -14.4375 7.140625 -15.183594 6.074219 -15.183594 C 6.019531 -15.183594 5.914062 -15.183594 5.859375 -15.183594 C 5.808594 -15.132812 5.699219 -15.132812 5.648438 -15.132812 C 2.824219 -14.707031 0.746094 -10.976562 -0.160156 -8.472656 C -0.371094 -7.671875 -0.585938 -6.925781 -0.53125 -6.019531 C -0.585938 -5.433594 -0.425781 -4.796875 -0.214844 -4.210938 C 0.160156 -2.878906 1.066406 -2.238281 2.503906 -2.238281 Z M 2.023438 -8.792969 C 1.972656 -8.738281 1.863281 -8.792969 1.703125 -8.84375 C 1.652344 -8.84375 1.597656 -8.953125 1.597656 -9.109375 C 2.183594 -10.761719 3.996094 -13.425781 5.753906 -13.691406 C 6.019531 -13.746094 6.179688 -13.640625 6.234375 -13.265625 C 6.234375 -11.5625 3.410156 -9.539062 2.023438 -8.792969 Z M 2.023438 -8.792969 "/></g></g></g><g fill="#291b25" fill-opacity="1"><g transform="translate(174.953302, 243.184306)"><g><path d="M -0.371094 4.261719 C 1.972656 4.261719 3.570312 -0.105469 3.730469 -2.34375 C 3.835938 -3.035156 4.210938 -3.625 4.796875 -4.050781 L 9.21875 -7.191406 C 10.550781 -8.207031 11.882812 -9.109375 13.320312 -10.125 C 13.691406 -10.390625 14.011719 -10.65625 14.171875 -10.921875 C 14.4375 -11.1875 14.386719 -11.457031 14.066406 -11.722656 C 13.960938 -11.828125 13.851562 -11.882812 13.691406 -11.882812 C 13.535156 -11.882812 13.375 -11.828125 13.214844 -11.722656 C 13.054688 -11.5625 12.894531 -11.457031 12.734375 -11.402344 L 5.007812 -5.96875 C 4.796875 -5.808594 4.527344 -5.648438 4.210938 -5.488281 C 4.050781 -5.753906 3.941406 -5.914062 3.941406 -5.96875 C 3.78125 -7.886719 3.464844 -9.75 3.089844 -11.667969 C 3.035156 -11.933594 2.984375 -12.253906 2.984375 -12.519531 C 2.984375 -12.789062 2.984375 -13.105469 3.035156 -13.375 C 3.195312 -15.34375 4.902344 -16.996094 6.875 -16.996094 C 7.03125 -16.996094 7.140625 -16.996094 7.191406 -17.050781 C 7.566406 -17.210938 7.671875 -17.636719 7.40625 -17.902344 C 6.980469 -18.328125 6.714844 -18.328125 6.128906 -18.328125 C 5.542969 -18.328125 5.007812 -18.167969 4.476562 -17.847656 C 2.609375 -16.515625 1.492188 -14.8125 1.652344 -12.414062 C 1.703125 -11.722656 1.757812 -11.027344 1.917969 -10.335938 C 2.292969 -8.683594 2.503906 -7.191406 2.558594 -5.542969 C 2.558594 -4.527344 2.398438 -3.890625 1.597656 -3.25 C 0.320312 -2.398438 -1.8125 0.265625 -2.078125 1.703125 C -2.238281 2.609375 -2.078125 3.410156 -1.226562 3.996094 C -0.960938 4.15625 -0.640625 4.261719 -0.371094 4.261719 Z M -0.265625 2.769531 C -0.425781 2.769531 -0.480469 2.71875 -0.53125 2.609375 C -0.640625 2.503906 -0.691406 2.34375 -0.691406 2.183594 C -0.746094 2.078125 -0.746094 1.972656 -0.691406 1.8125 C -0.160156 0.480469 0.746094 -0.640625 1.972656 -1.546875 C 1.917969 0.160156 1.117188 1.8125 0.105469 2.609375 C 0 2.71875 -0.105469 2.769531 -0.265625 2.769531 Z M -0.265625 2.769531 "/></g></g></g><g fill="#291b25" fill-opacity="1"><g transform="translate(186.56833, 243.184306)"><g><path d="M -0.371094 4.261719 C 1.972656 4.261719 3.570312 -0.105469 3.730469 -2.34375 C 3.835938 -3.035156 4.210938 -3.625 4.796875 -4.050781 L 9.21875 -7.191406 C 10.550781 -8.207031 11.882812 -9.109375 13.320312 -10.125 C 13.691406 -10.390625 14.011719 -10.65625 14.171875 -10.921875 C 14.4375 -11.1875 14.386719 -11.457031 14.066406 -11.722656 C 13.960938 -11.828125 13.851562 -11.882812 13.691406 -11.882812 C 13.535156 -11.882812 13.375 -11.828125 13.214844 -11.722656 C 13.054688 -11.5625 12.894531 -11.457031 12.734375 -11.402344 L 5.007812 -5.96875 C 4.796875 -5.808594 4.527344 -5.648438 4.210938 -5.488281 C 4.050781 -5.753906 3.941406 -5.914062 3.941406 -5.96875 C 3.78125 -7.886719 3.464844 -9.75 3.089844 -11.667969 C 3.035156 -11.933594 2.984375 -12.253906 2.984375 -12.519531 C 2.984375 -12.789062 2.984375 -13.105469 3.035156 -13.375 C 3.195312 -15.34375 4.902344 -16.996094 6.875 -16.996094 C 7.03125 -16.996094 7.140625 -16.996094 7.191406 -17.050781 C 7.566406 -17.210938 7.671875 -17.636719 7.40625 -17.902344 C 6.980469 -18.328125 6.714844 -18.328125 6.128906 -18.328125 C 5.542969 -18.328125 5.007812 -18.167969 4.476562 -17.847656 C 2.609375 -16.515625 1.492188 -14.8125 1.652344 -12.414062 C 1.703125 -11.722656 1.757812 -11.027344 1.917969 -10.335938 C 2.292969 -8.683594 2.503906 -7.191406 2.558594 -5.542969 C 2.558594 -4.527344 2.398438 -3.890625 1.597656 -3.25 C 0.320312 -2.398438 -1.8125 0.265625 -2.078125 1.703125 C -2.238281 2.609375 -2.078125 3.410156 -1.226562 3.996094 C -0.960938 4.15625 -0.640625 4.261719 -0.371094 4.261719 Z M -0.265625 2.769531 C -0.425781 2.769531 -0.480469 2.71875 -0.53125 2.609375 C -0.640625 2.503906 -0.691406 2.34375 -0.691406 2.183594 C -0.746094 2.078125 -0.746094 1.972656 -0.691406 1.8125 C -0.160156 0.480469 0.746094 -0.640625 1.972656 -1.546875 C 1.917969 0.160156 1.117188 1.8125 0.105469 2.609375 C 0 2.71875 -0.105469 2.769531 -0.265625 2.769531 Z M -0.265625 2.769531 "/></g></g></g><g fill="#291b25" fill-opacity="1"><g transform="translate(198.183358, 243.184306)"><g/></g></g><g fill="#291b25" fill-opacity="1"><g transform="translate(218.429743, 243.184306)"><g><path d="M 0.800781 4.101562 C 0.960938 4.101562 1.117188 4.101562 1.226562 4.050781 C 1.492188 3.996094 1.757812 3.890625 2.023438 3.78125 C 2.292969 3.625 2.558594 3.515625 2.824219 3.355469 C 4.582031 2.558594 6.445312 2.078125 8.3125 1.8125 C 11.457031 1.386719 14.386719 0.691406 17.371094 0 C 17.847656 -0.0546875 18.703125 -0.265625 18.703125 -0.851562 C 18.753906 -1.226562 18.488281 -1.597656 18.117188 -1.546875 C 17.902344 -1.546875 17.636719 -1.4375 17.421875 -1.386719 C 15.132812 -0.90625 12.894531 -0.371094 10.601562 0.0546875 C 9.269531 0.320312 7.886719 0.53125 6.554688 0.800781 C 5.167969 1.011719 3.835938 1.386719 2.503906 1.972656 C 2.34375 2.023438 2.238281 2.023438 2.183594 1.972656 C 2.023438 1.972656 1.972656 1.917969 1.972656 1.757812 C 2.132812 1.277344 2.238281 0.851562 2.398438 0.425781 C 4.527344 -6.339844 6.765625 -12.949219 9.058594 -19.609375 C 9.964844 -22.164062 11.027344 -24.667969 12.253906 -27.121094 L 13.535156 -29.785156 C 13.691406 -30.050781 13.746094 -30.265625 13.691406 -30.636719 C 13.640625 -30.851562 13.535156 -30.957031 13.375 -30.957031 C 13.214844 -31.007812 13.105469 -31.007812 13.054688 -30.957031 C 12.414062 -30.582031 10.871094 -27.226562 10.175781 -25.628906 C 9.484375 -24.03125 7.886719 -20.140625 7.621094 -19.5 C 6.289062 -15.929688 5.0625 -12.308594 3.941406 -8.683594 C 2.824219 -5.007812 1.546875 -1.386719 0.214844 2.238281 L 0.0546875 2.929688 C -0.105469 3.730469 0.105469 4.101562 0.800781 4.101562 Z M 0.800781 4.101562 "/></g></g></g><g fill="#291b25" fill-opacity="1"><g transform="translate(233.401417, 243.184306)"><g><path d="M 2.292969 -1.917969 C 3.730469 -1.917969 5.167969 -3.035156 6.179688 -3.941406 C 8.523438 -5.914062 10.390625 -8.257812 12.253906 -10.65625 C 12.414062 -10.816406 12.519531 -10.976562 12.574219 -11.242188 C 12.628906 -11.507812 12.574219 -11.722656 12.359375 -11.882812 C 12.253906 -11.988281 12.148438 -12.042969 11.988281 -12.042969 C 11.882812 -12.042969 11.773438 -11.988281 11.722656 -11.933594 C 11.457031 -11.722656 11.1875 -11.507812 10.976562 -11.242188 C 10.550781 -10.761719 10.125 -10.230469 9.75 -9.75 C 9.378906 -9.269531 8.953125 -8.738281 8.523438 -8.257812 C 7.300781 -6.820312 6.019531 -5.59375 4.582031 -4.367188 C 3.941406 -3.890625 3.355469 -3.515625 2.558594 -3.355469 C 1.972656 -3.355469 1.652344 -3.410156 1.492188 -3.996094 C 1.386719 -4.476562 1.332031 -4.957031 1.386719 -5.382812 C 1.703125 -7.886719 2.503906 -10.550781 3.410156 -12.894531 C 3.464844 -13.160156 3.410156 -13.375 3.144531 -13.480469 C 2.984375 -13.535156 2.878906 -13.585938 2.769531 -13.585938 C 2.664062 -13.585938 2.503906 -13.535156 2.34375 -13.425781 C 0.960938 -12.042969 0.371094 -7.726562 0 -5.382812 C 0 -4.582031 0 -4.050781 0.214844 -3.464844 C 0.585938 -2.449219 1.277344 -1.917969 2.292969 -1.917969 Z M 3.675781 -15.503906 C 4.261719 -15.503906 4.796875 -16.039062 4.796875 -16.625 C 4.742188 -17.210938 4.367188 -17.476562 3.730469 -17.476562 C 3.089844 -17.476562 2.769531 -17.15625 2.769531 -16.515625 C 2.824219 -15.878906 3.195312 -15.453125 3.675781 -15.503906 Z M 3.675781 -15.503906 "/></g></g></g><g fill="#291b25" fill-opacity="1"><g transform="translate(243.311486, 243.184306)"><g><path d="M 0.851562 14.492188 C 2.292969 14.492188 3.304688 11.773438 3.464844 10.390625 C 3.625 9.644531 3.730469 8.898438 3.78125 8.152344 C 3.835938 7.40625 3.890625 6.660156 3.941406 5.914062 C 4.210938 2.34375 3.625 -1.226562 2.292969 -4.6875 L 1.972656 -5.488281 C 1.917969 -5.753906 2.023438 -5.914062 2.238281 -6.074219 C 2.609375 -6.289062 3.089844 -6.445312 3.570312 -6.554688 C 4.582031 -6.925781 5.433594 -7.300781 6.445312 -7.777344 C 7.460938 -8.3125 8.472656 -8.84375 9.484375 -9.378906 C 10.496094 -9.855469 11.507812 -10.390625 12.519531 -10.871094 C 12.679688 -10.976562 12.894531 -11.082031 13.054688 -11.1875 C 13.214844 -11.242188 13.425781 -11.347656 13.585938 -11.457031 C 13.851562 -11.617188 13.960938 -11.882812 13.851562 -12.203125 C 13.800781 -12.519531 13.585938 -12.679688 13.214844 -12.679688 C 13.160156 -12.679688 13.160156 -12.679688 13.160156 -12.679688 C 13.105469 -12.628906 13.105469 -12.628906 13.054688 -12.628906 C 12.628906 -12.46875 12.203125 -12.308594 11.773438 -12.09375 L 6.019531 -9.164062 C 5.113281 -8.683594 4.15625 -8.207031 3.144531 -7.9375 L 2.984375 -7.9375 C 2.824219 -7.9375 2.71875 -7.9375 2.664062 -7.992188 C 2.398438 -8.152344 2.449219 -8.417969 2.609375 -8.632812 C 2.769531 -9.003906 2.984375 -9.378906 3.25 -9.855469 C 3.730469 -10.65625 4.316406 -11.5625 4.902344 -12.519531 C 7.566406 -16.675781 13.105469 -26.160156 13.691406 -30.957031 C 13.851562 -31.597656 13.800781 -32.128906 13.160156 -32.5 C 13.105469 -32.554688 13 -32.554688 12.839844 -32.554688 C 11.617188 -32.554688 9.75 -29.625 8.578125 -27.546875 C 7.460938 -25.523438 5.859375 -22.164062 5.488281 -21.207031 C 1.8125 -12.042969 -1.171875 -2.609375 -1.597656 7.351562 C -1.652344 8.578125 -1.492188 9.804688 -1.332031 11.027344 C -1.171875 12.203125 -0.425781 14.492188 0.851562 14.492188 Z M 0.960938 12.789062 C 0.851562 12.789062 0.746094 12.734375 0.640625 12.574219 C 0.214844 11.773438 0.105469 11.027344 -0.0546875 10.230469 C -0.320312 8.152344 -0.214844 6.019531 0.0546875 3.941406 C 0.265625 1.652344 0.53125 -0.640625 1.171875 -2.769531 C 1.597656 -2.503906 1.703125 -2.183594 1.757812 -1.917969 C 2.183594 -0.425781 2.503906 1.066406 2.558594 2.71875 C 2.71875 5.113281 2.558594 7.566406 2.183594 9.964844 C 2.023438 10.976562 1.863281 11.773438 1.277344 12.574219 C 1.226562 12.734375 1.117188 12.789062 0.960938 12.789062 Z M 4.527344 -14.066406 L 4.527344 -14.171875 C 4.582031 -14.121094 4.636719 -14.066406 4.6875 -14.066406 C 4.421875 -14.4375 4.527344 -14.8125 4.6875 -15.183594 C 6.339844 -19.925781 8.097656 -24.507812 10.816406 -28.773438 C 10.976562 -29.039062 11.1875 -29.359375 11.347656 -29.730469 C 11.507812 -30.050781 11.773438 -30.265625 12.203125 -30.371094 C 12.359375 -29.996094 12.359375 -29.625 12.203125 -29.304688 C 12.042969 -28.984375 11.933594 -28.664062 11.828125 -28.34375 C 9.910156 -23.285156 7.511719 -18.59375 4.6875 -14.066406 Z M 4.527344 -14.066406 "/></g></g></g><g fill="#291b25" fill-opacity="1"><g transform="translate(254.553559, 243.184306)"><g><path d="M 2.503906 -2.238281 C 6.179688 -2.238281 11.773438 -7.671875 14.332031 -10.390625 C 14.546875 -10.601562 14.707031 -10.761719 14.757812 -10.921875 C 14.917969 -11.1875 14.867188 -11.457031 14.597656 -11.722656 C 14.492188 -11.828125 14.386719 -11.882812 14.226562 -11.882812 C 14.121094 -11.882812 13.960938 -11.828125 13.800781 -11.722656 C 13.640625 -11.5625 13.480469 -11.402344 13.320312 -11.242188 C 13.160156 -11.082031 12.949219 -10.921875 12.789062 -10.761719 C 12.148438 -10.175781 11.507812 -9.589844 10.921875 -9.003906 C 10.285156 -8.417969 9.644531 -7.777344 9.003906 -7.191406 C 7.460938 -5.753906 5.007812 -4.050781 2.878906 -3.625 C 1.863281 -3.625 1.277344 -3.625 1.066406 -4.847656 C 0.800781 -5.542969 0.746094 -6.128906 0.90625 -6.714844 C 0.960938 -6.980469 1.117188 -7.140625 1.332031 -7.191406 C 3.890625 -7.460938 7.246094 -10.601562 7.671875 -13.214844 C 7.832031 -14.4375 7.140625 -15.183594 6.074219 -15.183594 C 6.019531 -15.183594 5.914062 -15.183594 5.859375 -15.183594 C 5.808594 -15.132812 5.699219 -15.132812 5.648438 -15.132812 C 2.824219 -14.707031 0.746094 -10.976562 -0.160156 -8.472656 C -0.371094 -7.671875 -0.585938 -6.925781 -0.53125 -6.019531 C -0.585938 -5.433594 -0.425781 -4.796875 -0.214844 -4.210938 C 0.160156 -2.878906 1.066406 -2.238281 2.503906 -2.238281 Z M 2.023438 -8.792969 C 1.972656 -8.738281 1.863281 -8.792969 1.703125 -8.84375 C 1.652344 -8.84375 1.597656 -8.953125 1.597656 -9.109375 C 2.183594 -10.761719 3.996094 -13.425781 5.753906 -13.691406 C 6.019531 -13.746094 6.179688 -13.640625 6.234375 -13.265625 C 6.234375 -11.5625 3.410156 -9.539062 2.023438 -8.792969 Z M 2.023438 -8.792969 "/></g></g></g><g fill="#291b25" fill-opacity="1"><g transform="translate(168.086383, 269.121779)"><g><path d="M 5.070312 -1.847656 C 5.070312 -2.316406 4.953125 -2.714844 4.730469 -3.03125 C 4.496094 -3.34375 4.183594 -3.558594 3.800781 -3.664062 C 4.027344 -3.761719 4.222656 -3.9375 4.367188 -4.203125 C 4.4375 -4.320312 4.484375 -4.4375 4.523438 -4.5625 C 4.5625 -4.691406 4.582031 -4.867188 4.582031 -5.089844 C 4.582031 -5.304688 4.523438 -5.53125 4.425781 -5.746094 C 4.132812 -6.34375 3.5 -6.644531 2.53125 -6.644531 L 0.734375 -6.644531 L 0.734375 0 L 2.765625 0 C 3.441406 0 3.976562 -0.148438 4.386719 -0.460938 C 4.59375 -0.617188 4.757812 -0.820312 4.886719 -1.074219 C 5.003906 -1.320312 5.070312 -1.574219 5.070312 -1.847656 Z M 3.898438 -4.984375 C 3.898438 -4.621094 3.792969 -4.359375 3.578125 -4.183594 C 3.363281 -4.007812 3.078125 -3.917969 2.726562 -3.917969 L 1.417969 -3.917969 L 1.417969 -5.992188 L 2.53125 -5.992188 C 3.441406 -5.992188 3.898438 -5.648438 3.898438 -4.984375 Z M 4.386719 -1.984375 C 4.386719 -1.582031 4.25 -1.261719 3.976562 -1.015625 C 3.714844 -0.773438 3.371094 -0.65625 2.960938 -0.65625 L 1.417969 -0.65625 L 1.417969 -3.234375 L 3.070312 -3.234375 C 3.410156 -3.234375 3.714844 -3.117188 3.976562 -2.882812 C 4.09375 -2.773438 4.191406 -2.648438 4.269531 -2.5 C 4.347656 -2.34375 4.386719 -2.179688 4.386719 -1.984375 Z M 4.386719 -1.984375 "/></g></g></g><g fill="#291b25" fill-opacity="1"><g transform="translate(174.863132, 269.121779)"><g><path d="M 3.304688 -3.128906 L 5.816406 -6.644531 L 4.945312 -6.644531 L 2.960938 -3.800781 L 0.976562 -6.644531 L 0.0976562 -6.644531 L 2.617188 -3.117188 L 2.617188 0 L 3.304688 0 Z M 3.304688 -3.128906 "/></g></g></g><g fill="#291b25" fill-opacity="1"><g transform="translate(182.284149, 269.121779)"><g/></g></g><g fill="#291b25" fill-opacity="1"><g transform="translate(186.435017, 269.121779)"><g><path d="M 6.859375 0 L 7.554688 0 L 6.011719 -7.085938 L 3.832031 -1.398438 L 1.652344 -7.085938 L 0.0976562 0 L 0.800781 0 L 1.828125 -4.730469 L 3.832031 0.390625 L 5.824219 -4.730469 Z M 6.859375 0 "/></g></g></g><g fill="#291b25" fill-opacity="1"><g transform="translate(195.593603, 269.121779)"><g><path d="M 1.417969 0 L 1.417969 -6.644531 L 0.734375 -6.644531 L 0.734375 0 Z M 1.417969 0 "/></g></g></g><g fill="#291b25" fill-opacity="1"><g transform="translate(199.256393, 269.121779)"><g><path d="M 1.417969 -0.683594 L 1.417969 -6.644531 L 0.734375 -6.644531 L 0.734375 0 L 3.792969 0 L 3.792969 -0.683594 Z M 1.417969 -0.683594 "/></g></g></g><g fill="#291b25" fill-opacity="1"><g transform="translate(204.754369, 269.121779)"><g><path d="M 1.417969 0 L 1.417969 -6.644531 L 0.734375 -6.644531 L 0.734375 0 Z M 1.417969 0 "/></g></g></g></svg>