<svg xmlns="http://www.w3.org/2000/svg" xmlns:xlink="http://www.w3.org/1999/xlink" width="500" zoomAndPan="magnify" viewBox="0 0 375 374.999991" height="500" preserveAspectRatio="xMidYMid meet" version="1.0"><defs><g/><clipPath id="6707915c4a"><path d="M 125.339844 8.453125 L 262.589844 8.453125 L 262.589844 178 L 125.339844 178 Z M 125.339844 8.453125 " clip-rule="nonzero"/></clipPath></defs><path fill="#edb8a5" d="M 160.484375 65.890625 C 159.925781 65.890625 159.367188 65.765625 158.84375 65.515625 C 157.726562 64.984375 156.925781 63.945312 156.703125 62.730469 L 155.628906 56.863281 C 154.847656 49.761719 157.109375 42.621094 161.839844 37.265625 C 166.644531 31.832031 173.574219 28.714844 180.84375 28.714844 L 207.121094 28.714844 C 214.378906 28.714844 221.304688 31.832031 226.113281 37.265625 C 230.855469 42.636719 233.117188 49.78125 232.320312 56.871094 L 231.246094 62.734375 C 231.023438 63.949219 230.21875 64.988281 229.105469 65.519531 C 227.980469 66.050781 226.707031 66.011719 225.613281 65.410156 C 215.988281 60.105469 205.046875 57.304688 193.972656 57.304688 C 182.898438 57.304688 171.957031 60.105469 162.332031 65.410156 C 161.75 65.730469 161.117188 65.890625 160.484375 65.890625 Z M 158.527344 56.496094 L 159.578125 62.203125 C 159.65625 62.625 159.964844 62.8125 160.09375 62.875 C 160.25 62.945312 160.5625 63.042969 160.921875 62.851562 C 170.980469 57.308594 182.40625 54.378906 193.972656 54.378906 C 205.539062 54.378906 216.96875 57.308594 227.023438 62.851562 C 227.375 63.042969 227.695312 62.953125 227.847656 62.875 C 227.976562 62.8125 228.289062 62.625 228.367188 62.199219 L 229.425781 56.441406 C 230.117188 50.273438 228.113281 43.957031 223.917969 39.203125 C 219.664062 34.394531 213.539062 31.640625 207.117188 31.640625 L 180.84375 31.640625 C 174.410156 31.640625 168.28125 34.394531 164.027344 39.203125 C 159.855469 43.929688 157.851562 50.226562 158.527344 56.496094 Z M 158.527344 56.496094 " fill-opacity="1" fill-rule="nonzero"/><path fill="#edb8a5" d="M 193.964844 166.394531 L 193.113281 165.773438 C 192.128906 165.054688 168.894531 148.058594 160.632812 133.207031 C 155.039062 123.144531 157.6875 109.628906 166.535156 103.082031 C 174.617188 97.105469 184.785156 98.878906 193.964844 107.773438 C 203.148438 98.878906 213.320312 97.101562 221.402344 103.082031 C 230.253906 109.628906 232.898438 123.144531 227.300781 133.203125 C 218.917969 148.273438 197.261719 164.03125 194.820312 165.777344 Z M 176.789062 102.5625 C 173.761719 102.5625 170.878906 103.507812 168.277344 105.429688 C 161.550781 110.410156 157.695312 121.898438 163.191406 131.785156 C 170.277344 144.523438 189.679688 159.542969 193.984375 162.777344 C 198.324219 159.578125 217.339844 145.109375 224.75 131.785156 C 230.242188 121.898438 226.386719 110.40625 219.664062 105.429688 C 212.5625 100.175781 203.355469 102.214844 195.019531 110.859375 L 193.964844 111.953125 L 192.914062 110.859375 C 187.640625 105.382812 182.007812 102.5625 176.789062 102.5625 Z M 176.789062 102.5625 " fill-opacity="1" fill-rule="nonzero"/><g clip-path="url(#6707915c4a)"><path fill="#edb8a5" d="M 222.019531 177.121094 C 217.9375 177.121094 213.808594 176.394531 209.816406 174.894531 C 203.542969 172.53125 198.070312 169.453125 193.226562 166.089844 C 188.480469 168.890625 183.355469 171.382812 177.953125 173.507812 C 162.867188 179.429688 145.53125 174.128906 136.742188 160.882812 C 129.285156 149.640625 125.339844 136.542969 125.339844 123 C 125.339844 109.75 129.128906 96.886719 136.300781 85.792969 C 138.355469 82.621094 139.105469 78.777344 138.40625 74.972656 L 135.609375 59.71875 C 133.996094 46.683594 138.042969 33.652344 146.695312 23.882812 C 155.339844 14.105469 167.785156 8.496094 180.839844 8.496094 L 207.113281 8.496094 C 220.160156 8.496094 232.601562 14.105469 241.242188 23.882812 C 249.894531 33.652344 253.941406 46.683594 252.347656 59.632812 L 252.257812 60.269531 L 249.554688 74.976562 C 248.855469 78.777344 249.597656 82.621094 251.648438 85.796875 C 258.8125 96.894531 262.601562 109.757812 262.601562 123 C 262.601562 137.523438 258.117188 151.402344 249.636719 163.132812 C 243.144531 172.109375 232.761719 177.121094 222.019531 177.121094 Z M 195.964844 164.414062 C 200.367188 167.371094 205.289062 170.0625 210.847656 172.160156 C 224.109375 177.15625 239.078125 172.738281 247.261719 161.421875 C 255.378906 150.191406 259.671875 136.902344 259.671875 123 C 259.671875 110.324219 256.042969 98.007812 249.1875 87.386719 C 246.730469 83.578125 245.835938 78.984375 246.675781 74.449219 L 249.441406 59.25 C 250.933594 47.160156 247.144531 34.96875 239.046875 25.820312 C 230.957031 16.671875 219.320312 11.425781 207.109375 11.425781 L 180.832031 11.425781 C 168.613281 11.425781 156.96875 16.671875 148.878906 25.820312 C 140.78125 34.964844 136.996094 47.160156 138.488281 59.277344 L 141.273438 74.445312 C 142.105469 78.984375 141.207031 83.582031 138.75 87.386719 C 131.886719 98 128.257812 110.316406 128.257812 123 C 128.257812 135.96875 132.03125 148.507812 139.175781 159.269531 C 147.207031 171.371094 163.0625 176.210938 176.871094 170.785156 C 181.714844 168.882812 186.324219 166.679688 190.621094 164.21875 C 186.28125 160.976562 182.46875 157.546875 179.039062 154.277344 L 181.058594 152.160156 C 184.667969 155.597656 188.707031 159.222656 193.347656 162.59375 C 198.445312 159.453125 203.050781 155.945312 207.019531 152.160156 L 209.039062 154.277344 C 205.214844 157.933594 200.808594 161.335938 195.964844 164.414062 Z M 195.964844 164.414062 " fill-opacity="1" fill-rule="nonzero"/></g><g fill="#291b25" fill-opacity="1"><g transform="translate(65.604352, 241.023851)"><g><path d="M 1.230469 5.820312 C 2.542969 5.820312 2.625 4.265625 2.871094 3.199219 C 3.445312 0.65625 4.101562 -1.804688 4.753906 -4.347656 C 5.328125 -6.886719 5.902344 -9.429688 6.476562 -11.972656 C 6.640625 -12.875 7.132812 -13.367188 8.035156 -13.53125 C 8.609375 -13.613281 9.183594 -13.777344 9.757812 -13.859375 C 10.332031 -13.941406 10.90625 -14.023438 11.480469 -14.105469 C 12.875 -14.347656 14.347656 -14.675781 15.742188 -14.921875 C 17.136719 -15.167969 18.53125 -15.414062 19.925781 -15.660156 C 20.992188 -15.824219 21.730469 -16.234375 22.222656 -16.890625 C 22.632812 -17.464844 22.550781 -17.957031 22.140625 -18.367188 C 21.976562 -18.613281 21.8125 -18.695312 21.566406 -18.695312 C 21.320312 -18.695312 21.15625 -18.613281 20.992188 -18.449219 C 19.925781 -17.546875 18.695312 -17.546875 17.464844 -17.300781 C 16.070312 -17.054688 14.675781 -16.808594 13.285156 -16.5625 C 11.890625 -16.316406 10.414062 -16.070312 9.019531 -15.824219 C 8.855469 -15.742188 8.609375 -15.742188 8.199219 -15.742188 C 7.871094 -15.742188 7.707031 -15.90625 7.707031 -16.234375 C 7.707031 -16.808594 7.789062 -17.136719 7.871094 -17.546875 C 9.101562 -22.140625 10.332031 -26.484375 11.644531 -30.996094 C 12.546875 -33.863281 13.613281 -36.570312 14.839844 -39.277344 C 15.167969 -40.179688 15.742188 -40.589844 16.5625 -40.671875 L 20.089844 -41.164062 C 26.976562 -42.066406 33.699219 -42.882812 40.589844 -43.210938 C 41.820312 -43.210938 42.882812 -43.292969 44.113281 -43.375 C 45.179688 -43.457031 45.589844 -43.867188 45.34375 -44.441406 C 45.097656 -45.097656 44.605469 -45.097656 44.03125 -45.097656 C 43.949219 -45.179688 43.785156 -45.179688 43.539062 -45.179688 C 43.292969 -45.179688 43.128906 -45.179688 42.964844 -45.097656 C 34.519531 -44.6875 26.484375 -43.785156 18.203125 -42.558594 L 17.382812 -42.558594 C 17.054688 -42.558594 16.808594 -42.640625 16.644531 -42.71875 C 16.5625 -42.964844 16.5625 -43.210938 16.644531 -43.375 C 16.726562 -43.539062 16.726562 -43.785156 16.808594 -44.03125 L 17.300781 -45.507812 C 17.546875 -46.082031 17.136719 -46.574219 16.5625 -46.820312 C 15.988281 -46.820312 15.742188 -46.902344 15.414062 -46.328125 C 15.167969 -45.917969 15.003906 -45.425781 14.839844 -44.769531 C 13.53125 -41.738281 13.941406 -42.066406 10.742188 -41.410156 C 9.183594 -41.082031 7.707031 -40.753906 6.230469 -40.34375 C 4.675781 -39.933594 3.199219 -39.605469 1.640625 -39.195312 C 1.066406 -39.113281 0.738281 -38.867188 0.492188 -38.539062 C 0.410156 -38.457031 0.410156 -38.292969 0.410156 -38.046875 C 0.492188 -37.800781 0.65625 -37.71875 0.738281 -37.71875 C 1.476562 -37.71875 2.050781 -37.800781 2.625 -37.964844 C 3.855469 -38.210938 5.164062 -38.539062 6.394531 -38.867188 C 7.625 -39.113281 8.9375 -39.441406 10.167969 -39.6875 C 10.742188 -39.769531 11.070312 -39.851562 11.480469 -39.851562 C 11.890625 -39.851562 12.136719 -39.769531 12.300781 -39.6875 C 12.382812 -39.359375 12.382812 -39.03125 12.300781 -38.785156 C 12.136719 -38.457031 11.972656 -38.128906 11.890625 -37.882812 C 9.183594 -31.242188 7.214844 -24.105469 5.65625 -17.136719 C 5.246094 -15.660156 4.347656 -14.839844 2.953125 -14.675781 C 2.050781 -14.59375 1.3125 -14.511719 0.574219 -14.265625 C 0.0820312 -14.105469 -0.0820312 -13.695312 0 -13.121094 C 0.0820312 -12.710938 0.328125 -12.464844 0.738281 -12.464844 C 1.148438 -12.464844 1.476562 -12.464844 1.886719 -12.464844 C 2.214844 -12.464844 2.542969 -12.464844 2.871094 -12.546875 C 4.101562 -12.546875 4.265625 -12.300781 4.019531 -11.070312 C 3.9375 -10.824219 3.9375 -10.660156 3.9375 -10.496094 C 3.855469 -10.25 3.773438 -10.003906 3.691406 -9.757812 L 0.738281 3.28125 C 0.65625 3.527344 0.65625 3.773438 0.574219 4.019531 C 0.492188 4.183594 0.492188 4.347656 0.410156 4.59375 C 0.328125 5.328125 0.574219 5.738281 1.230469 5.820312 Z M 1.230469 5.820312 "/></g></g></g><g fill="#291b25" fill-opacity="1"><g transform="translate(92.909027, 241.023851)"><g><path d="M 3.527344 -2.953125 C 5.738281 -2.953125 7.953125 -4.675781 9.511719 -6.066406 C 13.121094 -9.101562 15.988281 -12.710938 18.859375 -16.398438 C 19.105469 -16.644531 19.269531 -16.890625 19.351562 -17.300781 C 19.433594 -17.710938 19.351562 -18.039062 19.023438 -18.285156 C 18.859375 -18.449219 18.695312 -18.53125 18.449219 -18.53125 C 18.285156 -18.53125 18.121094 -18.449219 18.039062 -18.367188 C 17.628906 -18.039062 17.21875 -17.710938 16.890625 -17.300781 C 16.234375 -16.5625 15.578125 -15.742188 15.003906 -15.003906 C 14.429688 -14.265625 13.777344 -13.449219 13.121094 -12.710938 C 11.234375 -10.496094 9.265625 -8.609375 7.050781 -6.722656 C 6.066406 -5.984375 5.164062 -5.410156 3.9375 -5.164062 C 3.035156 -5.164062 2.542969 -5.246094 2.296875 -6.148438 C 2.132812 -6.886719 2.050781 -7.625 2.132812 -8.28125 C 2.625 -12.136719 3.855469 -16.234375 5.246094 -19.84375 C 5.328125 -20.253906 5.246094 -20.582031 4.835938 -20.746094 C 4.59375 -20.828125 4.429688 -20.910156 4.265625 -20.910156 C 4.101562 -20.910156 3.855469 -20.828125 3.609375 -20.664062 C 1.476562 -18.53125 0.574219 -11.890625 0 -8.28125 C 0 -7.050781 0 -6.230469 0.328125 -5.328125 C 0.902344 -3.773438 1.96875 -2.953125 3.527344 -2.953125 Z M 5.65625 -23.859375 C 6.558594 -23.859375 7.378906 -24.679688 7.378906 -25.582031 C 7.296875 -26.484375 6.722656 -26.894531 5.738281 -26.894531 C 4.753906 -26.894531 4.265625 -26.402344 4.265625 -25.417969 C 4.347656 -24.433594 4.917969 -23.777344 5.65625 -23.859375 Z M 5.65625 -23.859375 "/></g></g></g><g fill="#291b25" fill-opacity="1"><g transform="translate(108.160281, 241.023851)"><g><path d="M 1.476562 5.820312 C 2.789062 5.820312 4.347656 4.675781 5.082031 3.691406 C 7.707031 0.65625 10.660156 -3.363281 13.367188 -7.050781 C 15.660156 -10.167969 18.695312 -14.347656 20.335938 -16.316406 C 20.5 -16.480469 20.582031 -16.644531 20.582031 -16.808594 C 20.828125 -17.300781 20.746094 -17.710938 20.335938 -18.039062 C 20.089844 -18.121094 19.925781 -18.203125 19.761719 -18.203125 C 19.679688 -18.203125 19.679688 -18.203125 19.597656 -18.203125 C 19.515625 -18.121094 19.515625 -18.121094 19.433594 -18.121094 C 19.023438 -17.957031 18.695312 -17.710938 18.449219 -17.464844 C 18.203125 -17.136719 17.875 -16.808594 17.628906 -16.480469 C 15.25 -14.105469 8.035156 -3.28125 4.59375 1.066406 C 4.183594 1.558594 3.773438 2.050781 3.363281 2.542969 C 2.953125 2.953125 2.460938 3.28125 1.722656 3.363281 C 0.492188 2.378906 0.902344 0.902344 0.984375 -0.328125 C 1.230469 -3.199219 1.558594 -5.820312 2.214844 -8.527344 C 3.28125 -13.285156 7.542969 -26.320312 9.429688 -30.503906 C 9.839844 -31.570312 10.660156 -32.0625 11.808594 -32.144531 L 29.4375 -33.699219 C 29.847656 -33.78125 30.175781 -33.78125 30.503906 -33.863281 C 30.832031 -33.863281 31.160156 -33.945312 31.570312 -34.027344 C 31.898438 -34.109375 32.0625 -34.4375 32.0625 -34.847656 C 31.980469 -35.421875 31.734375 -35.667969 31.40625 -35.667969 L 28.453125 -35.667969 C 26.15625 -35.421875 23.699219 -35.175781 20.992188 -35.011719 C 18.285156 -34.765625 15.824219 -34.519531 13.53125 -34.273438 C 13.449219 -34.273438 13.285156 -34.273438 13.121094 -34.273438 C 12.957031 -34.191406 12.792969 -34.191406 12.628906 -34.191406 C 12.300781 -34.191406 11.972656 -34.273438 11.5625 -34.355469 C 11.5625 -34.765625 11.644531 -35.175781 11.808594 -35.503906 C 11.890625 -35.75 12.054688 -36.078125 12.136719 -36.324219 C 13.203125 -38.539062 14.265625 -40.671875 15.167969 -42.882812 C 15.578125 -43.621094 15.660156 -44.277344 15.578125 -44.6875 C 15.414062 -45.097656 15.167969 -45.261719 14.839844 -45.261719 C 14.265625 -45.261719 13.695312 -44.769531 13.121094 -43.785156 C 12.710938 -43.128906 12.300781 -42.476562 11.972656 -41.820312 C 11.5625 -41.164062 11.234375 -40.507812 10.824219 -39.851562 L 8.609375 -34.929688 C 8.199219 -34.027344 7.542969 -33.617188 6.558594 -33.535156 C 5.164062 -33.371094 3.691406 -33.210938 2.214844 -33.046875 C 0.738281 -32.882812 -0.738281 -32.71875 -2.214844 -32.472656 C -2.625 -32.390625 -3.035156 -32.308594 -3.445312 -32.226562 C -3.773438 -32.144531 -4.101562 -31.980469 -4.511719 -31.898438 C -4.917969 -31.816406 -5 -31.488281 -4.917969 -30.996094 C -4.835938 -30.75 -4.675781 -30.585938 -4.347656 -30.503906 C -4.101562 -30.421875 -3.855469 -30.421875 -3.445312 -30.421875 C -2.789062 -30.421875 -2.050781 -30.585938 -1.394531 -30.667969 C -0.328125 -30.75 0.820312 -30.914062 1.96875 -31.078125 C 3.035156 -31.242188 4.183594 -31.40625 5.246094 -31.488281 L 5.902344 -31.488281 C 6.886719 -31.488281 6.96875 -31.078125 6.558594 -29.847656 C 5.984375 -28.453125 5.574219 -27.140625 5 -25.582031 C 2.296875 -18.203125 -1.148438 -6.96875 -1.148438 0.984375 C -1.148438 2.871094 -0.65625 5.820312 1.476562 5.820312 Z M 1.476562 5.820312 "/></g></g></g><g fill="#291b25" fill-opacity="1"><g transform="translate(124.641477, 241.023851)"><g><path d="M -0.410156 -0.820312 C -0.0820312 -0.820312 0.164062 -0.902344 0.410156 -1.066406 C 0.902344 -1.476562 1.3125 -1.886719 1.558594 -2.460938 C 1.804688 -2.953125 2.050781 -3.445312 2.296875 -3.9375 C 4.835938 -9.101562 7.953125 -14.023438 12.21875 -17.875 C 12.382812 -18.039062 12.546875 -18.121094 12.792969 -18.121094 C 13.039062 -18.121094 13.285156 -17.875 13.367188 -17.464844 C 13.449219 -16.644531 13.613281 -15.824219 13.695312 -15.085938 C 13.777344 -14.265625 13.859375 -13.449219 13.941406 -12.628906 C 14.023438 -11.644531 14.265625 -10.660156 14.839844 -9.59375 C 15.496094 -8.445312 16.398438 -7.871094 17.464844 -7.871094 C 17.546875 -7.871094 17.710938 -7.871094 17.875 -7.953125 C 17.957031 -7.953125 18.121094 -7.953125 18.203125 -7.953125 C 19.433594 -8.199219 20.5 -8.773438 21.484375 -9.675781 C 22.386719 -10.496094 27.222656 -14.839844 28.125 -15.742188 C 28.453125 -16.070312 28.699219 -16.480469 28.863281 -16.890625 C 29.027344 -17.300781 28.945312 -17.710938 28.535156 -18.039062 C 28.371094 -18.203125 28.207031 -18.285156 27.960938 -18.285156 C 27.714844 -18.285156 27.550781 -18.203125 27.386719 -18.039062 C 27.222656 -17.957031 27.058594 -17.710938 26.8125 -17.464844 C 26.566406 -17.21875 25.992188 -16.644531 25.089844 -15.90625 C 24.351562 -15.25 23.617188 -14.59375 22.960938 -13.941406 C 22.222656 -13.203125 21.566406 -12.546875 20.828125 -11.890625 C 19.925781 -11.152344 19.105469 -10.496094 18.121094 -10.167969 C 18.039062 -10.167969 17.957031 -10.167969 17.957031 -10.167969 C 17.875 -10.085938 17.792969 -10.085938 17.710938 -10.085938 C 17.21875 -10.085938 16.890625 -10.332031 16.726562 -10.742188 C 16.316406 -11.480469 16.070312 -12.300781 15.988281 -13.285156 C 15.90625 -13.941406 15.824219 -14.59375 15.824219 -15.25 C 15.742188 -15.90625 15.660156 -16.5625 15.578125 -17.300781 C 15.332031 -18.695312 15.085938 -20.664062 13.203125 -20.664062 C 10.003906 -20.664062 3.691406 -11.234375 2.296875 -8.445312 C 2.050781 -9.019531 1.96875 -9.511719 2.214844 -10.003906 C 2.378906 -10.496094 2.542969 -10.988281 2.707031 -11.480469 C 3.527344 -13.53125 4.347656 -15.660156 5.164062 -17.792969 C 5.902344 -19.84375 6.722656 -21.976562 7.542969 -24.023438 L 8.035156 -25.007812 C 8.28125 -25.582031 8.199219 -26.074219 7.625 -26.402344 C 7.378906 -26.484375 7.214844 -26.566406 7.132812 -26.566406 C 6.230469 -26.566406 5.492188 -24.351562 5 -23.617188 C 4.265625 -21.566406 3.445312 -19.515625 2.707031 -17.464844 C 1.96875 -15.414062 1.148438 -13.367188 0.410156 -11.316406 C -0.492188 -8.609375 -1.3125 -5.902344 -1.640625 -3.035156 C -1.640625 -2.542969 -1.640625 -2.214844 -1.558594 -1.96875 C -1.476562 -1.230469 -1.066406 -0.820312 -0.410156 -0.820312 Z M -0.410156 -0.820312 "/></g></g></g><g fill="#291b25" fill-opacity="1"><g transform="translate(149.486267, 241.023851)"><g><path d="M 3.855469 -3.445312 C 9.511719 -3.445312 18.121094 -11.808594 22.058594 -15.988281 C 22.386719 -16.316406 22.632812 -16.5625 22.714844 -16.808594 C 22.960938 -17.21875 22.878906 -17.628906 22.46875 -18.039062 C 22.304688 -18.203125 22.140625 -18.285156 21.894531 -18.285156 C 21.730469 -18.285156 21.484375 -18.203125 21.238281 -18.039062 C 20.992188 -17.792969 20.746094 -17.546875 20.5 -17.300781 C 20.253906 -17.054688 19.925781 -16.808594 19.679688 -16.5625 C 18.695312 -15.660156 17.710938 -14.757812 16.808594 -13.859375 C 15.824219 -12.957031 14.839844 -11.972656 13.859375 -11.070312 C 11.480469 -8.855469 7.707031 -6.230469 4.429688 -5.574219 C 2.871094 -5.574219 1.96875 -5.574219 1.640625 -7.460938 C 1.230469 -8.527344 1.148438 -9.429688 1.394531 -10.332031 C 1.476562 -10.742188 1.722656 -10.988281 2.050781 -11.070312 C 5.984375 -11.480469 11.152344 -16.316406 11.808594 -20.335938 C 12.054688 -22.222656 10.988281 -23.371094 9.347656 -23.371094 C 9.265625 -23.371094 9.101562 -23.371094 9.019531 -23.371094 C 8.9375 -23.289062 8.773438 -23.289062 8.691406 -23.289062 C 4.347656 -22.632812 1.148438 -16.890625 -0.246094 -13.039062 C -0.574219 -11.808594 -0.902344 -10.660156 -0.820312 -9.265625 C -0.902344 -8.363281 -0.65625 -7.378906 -0.328125 -6.476562 C 0.246094 -4.429688 1.640625 -3.445312 3.855469 -3.445312 Z M 3.117188 -13.53125 C 3.035156 -13.449219 2.871094 -13.53125 2.625 -13.613281 C 2.542969 -13.613281 2.460938 -13.777344 2.460938 -14.023438 C 3.363281 -16.5625 6.148438 -20.664062 8.855469 -21.074219 C 9.265625 -21.15625 9.511719 -20.992188 9.59375 -20.417969 C 9.59375 -17.792969 5.246094 -14.675781 3.117188 -13.53125 Z M 3.117188 -13.53125 "/></g></g></g><g fill="#291b25" fill-opacity="1"><g transform="translate(168.181357, 241.023851)"><g><path d="M -0.574219 6.558594 C 3.035156 6.558594 5.492188 -0.164062 5.738281 -3.609375 C 5.902344 -4.675781 6.476562 -5.574219 7.378906 -6.230469 L 14.1875 -11.070312 C 16.234375 -12.628906 18.285156 -14.023438 20.5 -15.578125 C 21.074219 -15.988281 21.566406 -16.398438 21.8125 -16.808594 C 22.222656 -17.21875 22.140625 -17.628906 21.648438 -18.039062 C 21.484375 -18.203125 21.320312 -18.285156 21.074219 -18.285156 C 20.828125 -18.285156 20.582031 -18.203125 20.335938 -18.039062 C 20.089844 -17.792969 19.84375 -17.628906 19.597656 -17.546875 L 7.707031 -9.183594 C 7.378906 -8.9375 6.96875 -8.691406 6.476562 -8.445312 C 6.230469 -8.855469 6.066406 -9.101562 6.066406 -9.183594 C 5.820312 -12.136719 5.328125 -15.003906 4.753906 -17.957031 C 4.675781 -18.367188 4.59375 -18.859375 4.59375 -19.269531 C 4.59375 -19.679688 4.59375 -20.171875 4.675781 -20.582031 C 4.917969 -23.617188 7.542969 -26.15625 10.578125 -26.15625 C 10.824219 -26.15625 10.988281 -26.15625 11.070312 -26.238281 C 11.644531 -26.484375 11.808594 -27.140625 11.398438 -27.550781 C 10.742188 -28.207031 10.332031 -28.207031 9.429688 -28.207031 C 8.527344 -28.207031 7.707031 -27.960938 6.886719 -27.46875 C 4.019531 -25.417969 2.296875 -22.796875 2.542969 -19.105469 C 2.625 -18.039062 2.707031 -16.972656 2.953125 -15.90625 C 3.527344 -13.367188 3.855469 -11.070312 3.9375 -8.527344 C 3.9375 -6.96875 3.691406 -5.984375 2.460938 -5 C 0.492188 -3.691406 -2.789062 0.410156 -3.199219 2.625 C -3.445312 4.019531 -3.199219 5.246094 -1.886719 6.148438 C -1.476562 6.394531 -0.984375 6.558594 -0.574219 6.558594 Z M -0.410156 4.265625 C -0.65625 4.265625 -0.738281 4.183594 -0.820312 4.019531 C -0.984375 3.855469 -1.066406 3.609375 -1.066406 3.363281 C -1.148438 3.199219 -1.148438 3.035156 -1.066406 2.789062 C -0.246094 0.738281 1.148438 -0.984375 3.035156 -2.378906 C 2.953125 0.246094 1.722656 2.789062 0.164062 4.019531 C 0 4.183594 -0.164062 4.265625 -0.410156 4.265625 Z M -0.410156 4.265625 "/></g></g></g><g fill="#291b25" fill-opacity="1"><g transform="translate(186.056489, 241.023851)"><g><path d="M -0.574219 6.558594 C 3.035156 6.558594 5.492188 -0.164062 5.738281 -3.609375 C 5.902344 -4.675781 6.476562 -5.574219 7.378906 -6.230469 L 14.1875 -11.070312 C 16.234375 -12.628906 18.285156 -14.023438 20.5 -15.578125 C 21.074219 -15.988281 21.566406 -16.398438 21.8125 -16.808594 C 22.222656 -17.21875 22.140625 -17.628906 21.648438 -18.039062 C 21.484375 -18.203125 21.320312 -18.285156 21.074219 -18.285156 C 20.828125 -18.285156 20.582031 -18.203125 20.335938 -18.039062 C 20.089844 -17.792969 19.84375 -17.628906 19.597656 -17.546875 L 7.707031 -9.183594 C 7.378906 -8.9375 6.96875 -8.691406 6.476562 -8.445312 C 6.230469 -8.855469 6.066406 -9.101562 6.066406 -9.183594 C 5.820312 -12.136719 5.328125 -15.003906 4.753906 -17.957031 C 4.675781 -18.367188 4.59375 -18.859375 4.59375 -19.269531 C 4.59375 -19.679688 4.59375 -20.171875 4.675781 -20.582031 C 4.917969 -23.617188 7.542969 -26.15625 10.578125 -26.15625 C 10.824219 -26.15625 10.988281 -26.15625 11.070312 -26.238281 C 11.644531 -26.484375 11.808594 -27.140625 11.398438 -27.550781 C 10.742188 -28.207031 10.332031 -28.207031 9.429688 -28.207031 C 8.527344 -28.207031 7.707031 -27.960938 6.886719 -27.46875 C 4.019531 -25.417969 2.296875 -22.796875 2.542969 -19.105469 C 2.625 -18.039062 2.707031 -16.972656 2.953125 -15.90625 C 3.527344 -13.367188 3.855469 -11.070312 3.9375 -8.527344 C 3.9375 -6.96875 3.691406 -5.984375 2.460938 -5 C 0.492188 -3.691406 -2.789062 0.410156 -3.199219 2.625 C -3.445312 4.019531 -3.199219 5.246094 -1.886719 6.148438 C -1.476562 6.394531 -0.984375 6.558594 -0.574219 6.558594 Z M -0.410156 4.265625 C -0.65625 4.265625 -0.738281 4.183594 -0.820312 4.019531 C -0.984375 3.855469 -1.066406 3.609375 -1.066406 3.363281 C -1.148438 3.199219 -1.148438 3.035156 -1.066406 2.789062 C -0.246094 0.738281 1.148438 -0.984375 3.035156 -2.378906 C 2.953125 0.246094 1.722656 2.789062 0.164062 4.019531 C 0 4.183594 -0.164062 4.265625 -0.410156 4.265625 Z M -0.410156 4.265625 "/></g></g></g><g fill="#291b25" fill-opacity="1"><g transform="translate(203.931621, 241.023851)"><g/></g></g><g fill="#291b25" fill-opacity="1"><g transform="translate(235.090105, 241.023851)"><g><path d="M 1.230469 6.3125 C 1.476562 6.3125 1.722656 6.3125 1.886719 6.230469 C 2.296875 6.148438 2.707031 5.984375 3.117188 5.820312 C 3.527344 5.574219 3.9375 5.410156 4.347656 5.164062 C 7.050781 3.9375 9.921875 3.199219 12.792969 2.789062 C 17.628906 2.132812 22.140625 1.066406 26.730469 0 C 27.46875 -0.0820312 28.78125 -0.410156 28.78125 -1.3125 C 28.863281 -1.886719 28.453125 -2.460938 27.878906 -2.378906 C 27.550781 -2.378906 27.140625 -2.214844 26.8125 -2.132812 C 23.289062 -1.394531 19.84375 -0.574219 16.316406 0.0820312 C 14.265625 0.492188 12.136719 0.820312 10.085938 1.230469 C 7.953125 1.558594 5.902344 2.132812 3.855469 3.035156 C 3.609375 3.117188 3.445312 3.117188 3.363281 3.035156 C 3.117188 3.035156 3.035156 2.953125 3.035156 2.707031 C 3.28125 1.96875 3.445312 1.3125 3.691406 0.65625 C 6.96875 -9.757812 10.414062 -19.925781 13.941406 -30.175781 C 15.332031 -34.109375 16.972656 -37.964844 18.859375 -41.738281 L 20.828125 -45.835938 C 21.074219 -46.246094 21.15625 -46.574219 21.074219 -47.148438 C 20.992188 -47.476562 20.828125 -47.640625 20.582031 -47.640625 C 20.335938 -47.722656 20.171875 -47.722656 20.089844 -47.640625 C 19.105469 -47.066406 16.726562 -41.902344 15.660156 -39.441406 C 14.59375 -36.980469 12.136719 -30.996094 11.726562 -30.011719 C 9.675781 -24.515625 7.789062 -18.941406 6.066406 -13.367188 C 4.347656 -7.707031 2.378906 -2.132812 0.328125 3.445312 L 0.0820312 4.511719 C -0.164062 5.738281 0.164062 6.3125 1.230469 6.3125 Z M 1.230469 6.3125 "/></g></g></g><g fill="#291b25" fill-opacity="1"><g transform="translate(258.130996, 241.023851)"><g><path d="M 3.527344 -2.953125 C 5.738281 -2.953125 7.953125 -4.675781 9.511719 -6.066406 C 13.121094 -9.101562 15.988281 -12.710938 18.859375 -16.398438 C 19.105469 -16.644531 19.269531 -16.890625 19.351562 -17.300781 C 19.433594 -17.710938 19.351562 -18.039062 19.023438 -18.285156 C 18.859375 -18.449219 18.695312 -18.53125 18.449219 -18.53125 C 18.285156 -18.53125 18.121094 -18.449219 18.039062 -18.367188 C 17.628906 -18.039062 17.21875 -17.710938 16.890625 -17.300781 C 16.234375 -16.5625 15.578125 -15.742188 15.003906 -15.003906 C 14.429688 -14.265625 13.777344 -13.449219 13.121094 -12.710938 C 11.234375 -10.496094 9.265625 -8.609375 7.050781 -6.722656 C 6.066406 -5.984375 5.164062 -5.410156 3.9375 -5.164062 C 3.035156 -5.164062 2.542969 -5.246094 2.296875 -6.148438 C 2.132812 -6.886719 2.050781 -7.625 2.132812 -8.28125 C 2.625 -12.136719 3.855469 -16.234375 5.246094 -19.84375 C 5.328125 -20.253906 5.246094 -20.582031 4.835938 -20.746094 C 4.59375 -20.828125 4.429688 -20.910156 4.265625 -20.910156 C 4.101562 -20.910156 3.855469 -20.828125 3.609375 -20.664062 C 1.476562 -18.53125 0.574219 -11.890625 0 -8.28125 C 0 -7.050781 0 -6.230469 0.328125 -5.328125 C 0.902344 -3.773438 1.96875 -2.953125 3.527344 -2.953125 Z M 5.65625 -23.859375 C 6.558594 -23.859375 7.378906 -24.679688 7.378906 -25.582031 C 7.296875 -26.484375 6.722656 -26.894531 5.738281 -26.894531 C 4.753906 -26.894531 4.265625 -26.402344 4.265625 -25.417969 C 4.347656 -24.433594 4.917969 -23.777344 5.65625 -23.859375 Z M 5.65625 -23.859375 "/></g></g></g><g fill="#291b25" fill-opacity="1"><g transform="translate(273.382262, 241.023851)"><g><path d="M 1.3125 22.304688 C 3.527344 22.304688 5.082031 18.121094 5.328125 15.988281 C 5.574219 14.839844 5.738281 13.695312 5.820312 12.546875 C 5.902344 11.398438 5.984375 10.25 6.066406 9.101562 C 6.476562 3.609375 5.574219 -1.886719 3.527344 -7.214844 L 3.035156 -8.445312 C 2.953125 -8.855469 3.117188 -9.101562 3.445312 -9.347656 C 4.019531 -9.675781 4.753906 -9.921875 5.492188 -10.085938 C 7.050781 -10.660156 8.363281 -11.234375 9.921875 -11.972656 C 11.480469 -12.792969 13.039062 -13.613281 14.59375 -14.429688 C 16.152344 -15.167969 17.710938 -15.988281 19.269531 -16.726562 C 19.515625 -16.890625 19.84375 -17.054688 20.089844 -17.21875 C 20.335938 -17.300781 20.664062 -17.464844 20.910156 -17.628906 C 21.320312 -17.875 21.484375 -18.285156 21.320312 -18.777344 C 21.238281 -19.269531 20.910156 -19.515625 20.335938 -19.515625 C 20.253906 -19.515625 20.253906 -19.515625 20.253906 -19.515625 C 20.171875 -19.433594 20.171875 -19.433594 20.089844 -19.433594 C 19.433594 -19.1875 18.777344 -18.941406 18.121094 -18.613281 L 9.265625 -14.105469 C 7.871094 -13.367188 6.394531 -12.628906 4.835938 -12.21875 L 4.59375 -12.21875 C 4.347656 -12.21875 4.183594 -12.21875 4.101562 -12.300781 C 3.691406 -12.546875 3.773438 -12.957031 4.019531 -13.285156 C 4.265625 -13.859375 4.59375 -14.429688 5 -15.167969 C 5.738281 -16.398438 6.640625 -17.792969 7.542969 -19.269531 C 11.644531 -25.664062 20.171875 -40.261719 21.074219 -47.640625 C 21.320312 -48.625 21.238281 -49.445312 20.253906 -50.019531 C 20.171875 -50.101562 20.007812 -50.101562 19.761719 -50.101562 C 17.875 -50.101562 15.003906 -45.589844 13.203125 -42.394531 C 11.480469 -39.277344 9.019531 -34.109375 8.445312 -32.636719 C 2.789062 -18.53125 -1.804688 -4.019531 -2.460938 11.316406 C -2.542969 13.203125 -2.296875 15.085938 -2.050781 16.972656 C -1.804688 18.777344 -0.65625 22.304688 1.3125 22.304688 Z M 1.476562 19.679688 C 1.3125 19.679688 1.148438 19.597656 0.984375 19.351562 C 0.328125 18.121094 0.164062 16.972656 -0.0820312 15.742188 C -0.492188 12.546875 -0.328125 9.265625 0.0820312 6.066406 C 0.410156 2.542969 0.820312 -0.984375 1.804688 -4.265625 C 2.460938 -3.855469 2.625 -3.363281 2.707031 -2.953125 C 3.363281 -0.65625 3.855469 1.640625 3.9375 4.183594 C 4.183594 7.871094 3.9375 11.644531 3.363281 15.332031 C 3.117188 16.890625 2.871094 18.121094 1.96875 19.351562 C 1.886719 19.597656 1.722656 19.679688 1.476562 19.679688 Z M 6.96875 -21.648438 L 6.96875 -21.8125 C 7.050781 -21.730469 7.132812 -21.648438 7.214844 -21.648438 C 6.804688 -22.222656 6.96875 -22.796875 7.214844 -23.371094 C 9.757812 -30.667969 12.464844 -37.71875 16.644531 -44.277344 C 16.890625 -44.6875 17.21875 -45.179688 17.464844 -45.753906 C 17.710938 -46.246094 18.121094 -46.574219 18.777344 -46.738281 C 19.023438 -46.164062 19.023438 -45.589844 18.777344 -45.097656 C 18.53125 -44.605469 18.367188 -44.113281 18.203125 -43.621094 C 15.25 -35.832031 11.5625 -28.617188 7.214844 -21.648438 Z M 6.96875 -21.648438 "/></g></g></g><g fill="#291b25" fill-opacity="1"><g transform="translate(290.683438, 241.023851)"><g><path d="M 3.855469 -3.445312 C 9.511719 -3.445312 18.121094 -11.808594 22.058594 -15.988281 C 22.386719 -16.316406 22.632812 -16.5625 22.714844 -16.808594 C 22.960938 -17.21875 22.878906 -17.628906 22.46875 -18.039062 C 22.304688 -18.203125 22.140625 -18.285156 21.894531 -18.285156 C 21.730469 -18.285156 21.484375 -18.203125 21.238281 -18.039062 C 20.992188 -17.792969 20.746094 -17.546875 20.5 -17.300781 C 20.253906 -17.054688 19.925781 -16.808594 19.679688 -16.5625 C 18.695312 -15.660156 17.710938 -14.757812 16.808594 -13.859375 C 15.824219 -12.957031 14.839844 -11.972656 13.859375 -11.070312 C 11.480469 -8.855469 7.707031 -6.230469 4.429688 -5.574219 C 2.871094 -5.574219 1.96875 -5.574219 1.640625 -7.460938 C 1.230469 -8.527344 1.148438 -9.429688 1.394531 -10.332031 C 1.476562 -10.742188 1.722656 -10.988281 2.050781 -11.070312 C 5.984375 -11.480469 11.152344 -16.316406 11.808594 -20.335938 C 12.054688 -22.222656 10.988281 -23.371094 9.347656 -23.371094 C 9.265625 -23.371094 9.101562 -23.371094 9.019531 -23.371094 C 8.9375 -23.289062 8.773438 -23.289062 8.691406 -23.289062 C 4.347656 -22.632812 1.148438 -16.890625 -0.246094 -13.039062 C -0.574219 -11.808594 -0.902344 -10.660156 -0.820312 -9.265625 C -0.902344 -8.363281 -0.65625 -7.378906 -0.328125 -6.476562 C 0.246094 -4.429688 1.640625 -3.445312 3.855469 -3.445312 Z M 3.117188 -13.53125 C 3.035156 -13.449219 2.871094 -13.53125 2.625 -13.613281 C 2.542969 -13.613281 2.460938 -13.777344 2.460938 -14.023438 C 3.363281 -16.5625 6.148438 -20.664062 8.855469 -21.074219 C 9.265625 -21.15625 9.511719 -20.992188 9.59375 -20.417969 C 9.59375 -17.792969 5.246094 -14.675781 3.117188 -13.53125 Z M 3.117188 -13.53125 "/></g></g></g><g fill="#291b25" fill-opacity="1"><g transform="translate(135.837139, 284.749347)"><g><path d="M 13.492188 -4.914062 C 13.492188 -6.160156 13.179688 -7.226562 12.582031 -8.058594 C 11.957031 -8.890625 11.125 -9.460938 10.113281 -9.75 C 10.710938 -10.007812 11.230469 -10.476562 11.621094 -11.179688 C 11.800781 -11.488281 11.933594 -11.800781 12.035156 -12.140625 C 12.140625 -12.476562 12.191406 -12.945312 12.191406 -13.542969 C 12.191406 -14.117188 12.035156 -14.714844 11.777344 -15.285156 C 10.996094 -16.871094 9.304688 -17.675781 6.734375 -17.675781 L 1.949219 -17.675781 L 1.949219 0 L 7.355469 0 C 9.148438 0 10.578125 -0.390625 11.671875 -1.222656 C 12.21875 -1.636719 12.660156 -2.183594 12.996094 -2.859375 C 13.308594 -3.507812 13.492188 -4.183594 13.492188 -4.914062 Z M 10.371094 -13.257812 C 10.371094 -12.296875 10.085938 -11.59375 9.515625 -11.125 C 8.941406 -10.65625 8.1875 -10.425781 7.253906 -10.425781 L 3.769531 -10.425781 L 3.769531 -15.933594 L 6.734375 -15.933594 C 9.148438 -15.933594 10.371094 -15.023438 10.371094 -13.257812 Z M 11.671875 -5.277344 C 11.671875 -4.210938 11.308594 -3.351562 10.578125 -2.703125 C 9.878906 -2.054688 8.96875 -1.742188 7.875 -1.742188 L 3.769531 -1.742188 L 3.769531 -8.605469 L 8.164062 -8.605469 C 9.070312 -8.605469 9.878906 -8.292969 10.578125 -7.667969 C 10.890625 -7.382812 11.152344 -7.042969 11.359375 -6.65625 C 11.566406 -6.238281 11.671875 -5.796875 11.671875 -5.277344 Z M 11.671875 -5.277344 "/></g></g></g><g fill="#291b25" fill-opacity="1"><g transform="translate(153.876942, 284.749347)"><g><path d="M 8.785156 -8.320312 L 15.46875 -17.675781 L 13.152344 -17.675781 L 7.875 -10.113281 L 2.597656 -17.675781 L 0.261719 -17.675781 L 6.964844 -8.292969 L 6.964844 0 L 8.785156 0 Z M 8.785156 -8.320312 "/></g></g></g><g fill="#291b25" fill-opacity="1"><g transform="translate(173.632237, 284.749347)"><g/></g></g><g fill="#291b25" fill-opacity="1"><g transform="translate(184.680136, 284.749347)"><g><path d="M 18.25 0 L 20.09375 0 L 15.988281 -18.847656 L 10.191406 -3.71875 L 4.394531 -18.847656 L 0.261719 0 L 2.132812 0 L 4.859375 -12.582031 L 10.191406 1.039062 L 15.492188 -12.582031 Z M 18.25 0 "/></g></g></g><g fill="#291b25" fill-opacity="1"><g transform="translate(209.062047, 284.749347)"><g><path d="M 3.769531 0 L 3.769531 -17.675781 L 1.949219 -17.675781 L 1.949219 0 Z M 3.769531 0 "/></g></g></g><g fill="#291b25" fill-opacity="1"><g transform="translate(218.810341, 284.749347)"><g><path d="M 3.769531 -1.820312 L 3.769531 -17.675781 L 1.949219 -17.675781 L 1.949219 0 L 10.085938 0 L 10.085938 -1.820312 Z M 3.769531 -1.820312 "/></g></g></g><g fill="#291b25" fill-opacity="1"><g transform="translate(233.445176, 284.749347)"><g><path d="M 3.769531 0 L 3.769531 -17.675781 L 1.949219 -17.675781 L 1.949219 0 Z M 3.769531 0 "/></g></g></g></svg>